<svg xmlns:rdf="http://www.w3.org/1999/02/22-rdf-syntax-ns#" xmlns="http://www.w3.org/2000/svg" height="12mm" width="12mm" version="1.1" xmlns:cc="http://creativecommons.org/ns#" xmlns:dc="http://purl.org/dc/elements/1.1/" viewBox="0 0 42.519685 42.519684">
<g transform="translate(68.933 -6.8447)">
<path d="m-47.675 8.2452c-11.244 0-20.36 9.1162-20.36 20.362 0 8.9962 5.8338 16.628 13.925 19.321 1.0188 0.18625 1.39-0.4425 1.39-0.9825 0-0.4825-0.0175-1.7638-0.0275-3.4625-5.6638 1.23-6.8588-2.73-6.8588-2.73-0.92625-2.3512-2.2612-2.9775-2.2612-2.9775-1.8488-1.2638 0.14-1.2388 0.14-1.2388 2.0438 0.145 3.1188 2.0988 3.1188 2.0988 1.8162 3.1112 4.7662 2.2125 5.9262 1.6925 0.185-1.3162 0.71-2.2138 1.2925-2.7225-4.5212-0.51375-9.275-2.2612-9.275-10.064 0-2.2225 0.79375-4.04 2.0962-5.4638-0.21-0.515-0.90875-2.585 0.19875-5.3888 0 0 1.71-0.5475 5.6 2.0875 1.6238-0.45125 3.3662-0.6775 5.0975-0.685 1.7288 0.0075 3.4712 0.23375 5.0975 0.685 3.8875-2.635 5.5938-2.0875 5.5938-2.0875 1.1112 2.8038 0.4125 4.8738 0.2025 5.3888 1.305 1.4238 2.0938 3.2412 2.0938 5.4638 0 7.8225-4.7612 9.5438-9.2975 10.048 0.73125 0.62875 1.3825 1.8712 1.3825 3.7712 0 2.7212-0.025 4.9175-0.025 5.585 0 0.545 0.36625 1.1788 1.4 0.98 8.085-2.6988 13.914-10.325 13.914-19.319 0-11.246-9.1175-20.362-20.364-20.362" fill-rule="evenodd" fill="#1b1817"/>
</g>
</svg>
